<svg xmlns="http://www.w3.org/2000/svg" width="230" height="233" viewBox="0 0 230 233">
<g>
<path d="M 2.28 101.00 C0.45,90.79 0.00,103.29 0.00,164.80 L 0.00 0.00 L 230.00 0.00 L 230.00 233.00 L 226.00 233.00 L 226.00 229.41 C226.00,226.65 226.47,225.69 228.00,225.29 C229.97,224.77 230.00,223.93 230.00,166.88 C230.00,135.05 229.64,109.00 229.21,109.00 C227.76,109.00 225.79,99.64 225.25,90.25 C224.96,85.16 224.34,81.00 223.86,81.00 C223.39,81.00 223.00,78.28 223.00,74.96 C223.00,71.55 222.40,67.97 221.61,66.71 C220.85,65.50 219.94,62.88 219.60,60.91 C218.80,56.34 212.29,43.05 210.52,42.37 C209.78,42.09 208.91,40.78 208.58,39.47 C207.97,37.03 191.48,20.00 189.73,20.00 C189.20,20.00 187.25,18.67 185.40,17.05 C183.55,15.42 180.11,13.59 177.77,12.99 C175.42,12.38 172.15,11.40 170.50,10.81 C164.43,8.64 145.51,7.90 105.50,8.27 C66.37,8.64 64.20,8.76 58.00,10.87 C41.89,16.34 31.28,23.55 21.76,35.48 C19.57,38.21 16.48,41.24 14.89,42.21 C13.04,43.34 12.00,44.80 12.00,46.29 C12.00,47.56 11.62,49.03 11.17,49.55 C9.22,51.76 6.80,60.46 6.66,65.76 C6.55,69.69 5.96,72.01 4.75,73.23 C2.85,75.16 2.40,79.51 4.00,80.50 C4.55,80.84 5.00,84.49 5.00,88.62 C5.00,93.36 4.63,95.89 4.00,95.50 C3.40,95.13 2.95,96.60 2.86,99.19 C2.78,101.91 2.56,102.58 2.28,101.00 Z" fill="rgb(14,13,16)"/>
<path d="M 215.30 49.93 C217.29,53.97 219.19,58.58 219.60,60.91 C219.94,62.88 220.85,65.50 221.61,66.71 C222.40,67.97 223.00,71.55 223.00,74.96 C223.00,78.28 223.39,81.00 223.86,81.00 C224.34,81.00 224.96,85.16 225.25,90.25 C225.79,99.64 227.76,109.00 229.21,109.00 C229.64,109.00 230.00,135.05 230.00,166.88 C230.00,223.93 229.97,224.77 228.00,225.29 C226.47,225.69 226.00,226.65 226.00,229.41 L 226.00 233.00 L 0.00 233.00 L 0.00 164.80 C0.00,103.29 0.45,90.79 2.28,101.00 C2.56,102.58 2.78,101.91 2.86,99.19 C2.95,96.60 3.40,95.13 4.00,95.50 C4.63,95.89 5.00,93.36 5.00,88.62 C5.00,84.49 4.55,80.84 4.00,80.50 C2.40,79.51 2.85,75.16 4.75,73.23 C5.96,72.01 6.55,69.69 6.66,65.76 C6.80,60.46 9.22,51.76 11.17,49.55 C11.62,49.03 12.00,47.56 12.00,46.29 C12.00,44.80 13.04,43.34 14.89,42.21 C16.48,41.24 19.57,38.21 21.76,35.48 C24.05,32.61 26.40,30.01 28.88,27.65 C21.15,35.20 14.74,45.07 10.68,56.02 C6.78,66.56 5.97,79.42 6.36,124.50 L 6.72 165.50 L 9.28 172.72 C12.45,181.65 17.20,191.10 20.78,195.59 C22.28,197.47 23.27,199.18 23.00,199.39 C22.73,199.61 23.26,200.62 24.18,201.65 C25.10,202.67 25.81,203.73 25.76,204.00 C25.58,204.90 30.70,212.46 32.62,214.13 C33.65,215.03 35.51,216.07 36.75,216.45 C39.00,217.13 39.95,220.00 37.93,220.00 C37.34,220.00 37.00,221.01 37.18,222.25 C37.44,224.11 38.22,224.55 41.66,224.80 C45.47,225.08 45.96,225.44 47.40,229.05 L 48.98 233.00 L 114.24 232.92 L 179.50 232.84 L 184.00 227.50 C186.48,224.56 189.02,222.13 189.65,222.08 C190.29,222.04 190.73,220.58 190.65,218.76 C190.51,215.80 190.80,215.47 193.90,215.01 C197.38,214.49 198.13,213.65 199.63,208.58 C200.12,206.93 201.81,204.94 203.50,204.00 C205.15,203.09 206.66,201.47 206.86,200.42 C207.05,199.36 208.07,197.69 209.11,196.71 C210.15,195.73 211.00,194.26 211.00,193.44 C211.00,192.63 212.80,188.21 215.00,183.62 C217.20,179.03 219.01,174.43 219.02,173.39 C219.02,172.35 219.68,169.70 220.47,167.50 C222.63,161.51 222.65,76.65 220.50,65.29 C219.66,60.86 217.49,54.74 215.30,49.93 ZM 188.00 220.50 C188.00,222.06 186.82,222.48 185.67,221.33 C184.52,220.18 184.94,219.00 186.50,219.00 C187.32,219.00 188.00,219.68 188.00,220.50 ZM 59.25 10.45 C63.56,9.09 67.22,8.73 86.66,8.47 C72.23,8.69 64.98,9.08 59.25,10.45 ZM 43.34 17.15 C44.90,16.30 46.51,15.50 48.20,14.73 C46.74,15.44 45.15,16.24 43.36,17.14 Z" fill="rgb(24,15,39)"/>
<path d="M 70.84 223.51 C71.11,223.78 90.80,224.00 114.60,224.00 C161.61,224.00 166.70,223.55 178.40,218.37 C184.82,215.52 193.77,209.68 198.50,205.25 C204.51,199.61 210.99,191.03 214.80,184.04 C212.69,188.47 211.00,192.65 211.00,193.44 C211.00,194.26 210.15,195.73 209.11,196.71 C208.07,197.69 207.05,199.36 206.86,200.42 C206.66,201.47 205.15,203.09 203.50,204.00 C201.81,204.94 200.12,206.93 199.63,208.58 C198.13,213.65 197.38,214.49 193.90,215.01 C190.80,215.47 190.51,215.80 190.65,218.76 C190.73,220.58 190.29,222.04 189.65,222.08 C189.02,222.13 186.48,224.56 184.00,227.50 L 179.50 232.84 L 114.24 232.92 L 48.98 233.00 L 47.40 229.05 C45.96,225.44 45.47,225.08 41.66,224.80 C38.22,224.55 37.44,224.11 37.18,222.25 C37.00,221.01 37.34,220.00 37.93,220.00 C39.95,220.00 39.00,217.13 36.75,216.45 C35.51,216.07 33.65,215.03 32.62,214.13 C30.70,212.46 25.58,204.90 25.76,204.00 C25.81,203.73 25.10,202.67 24.18,201.65 C23.26,200.62 22.73,199.61 23.00,199.39 C23.27,199.18 22.28,197.47 20.78,195.59 C19.60,194.11 18.29,192.09 16.95,189.72 C19.52,193.89 22.53,197.50 26.61,201.60 C35.00,210.03 46.29,217.55 52.20,218.64 C54.02,218.97 56.44,219.82 57.58,220.54 C58.73,221.25 62.07,222.09 65.01,222.42 C67.95,222.75 70.57,223.24 70.84,223.51 ZM 188.00 220.50 C188.00,219.68 187.32,219.00 186.50,219.00 C184.94,219.00 184.52,220.18 185.67,221.33 C186.82,222.48 188.00,222.06 188.00,220.50 ZM 9.76 174.06 C9.60,173.61 9.44,173.16 9.28,172.72 L 6.72 165.50 L 6.36 124.50 C6.72,165.32 6.73,165.53 9.24,172.59 C9.41,173.09 9.59,173.58 9.76,174.06 ZM 217.63 177.68 C217.65,177.60 217.68,177.52 217.70,177.43 C218.04,176.28 218.54,174.55 219.07,172.74 C219.04,173.00 219.02,173.21 219.02,173.39 C219.01,173.95 218.47,175.58 217.63,177.68 ZM 221.11 162.83 C221.15,162.32 221.19,161.78 221.22,161.22 C221.19,161.79 221.15,162.32 221.11,162.83 Z" fill="rgb(39,20,75)"/>
<path d="M 217.63 177.68 C216.92,179.44 216.00,181.53 215.00,183.62 C214.93,183.76 214.87,183.90 214.80,184.04 C210.99,191.03 204.51,199.61 198.50,205.25 C193.77,209.68 184.82,215.52 178.40,218.37 C166.70,223.55 161.61,224.00 114.60,224.00 C101.78,224.00 90.15,223.94 82.10,223.83 C94.14,223.65 111.97,222.96 114.95,222.36 C116.90,221.97 117.69,221.43 116.97,220.98 C114.92,219.72 116.93,216.18 120.34,215.05 C122.73,214.26 123.84,213.12 124.55,210.74 C125.25,208.33 126.31,207.26 128.66,206.57 C130.96,205.89 131.97,204.89 132.37,202.91 C132.77,200.92 133.82,199.88 136.25,199.08 C138.74,198.26 139.84,197.15 140.55,194.74 C141.25,192.33 142.31,191.26 144.66,190.57 C146.96,189.89 147.97,188.89 148.37,186.91 C148.77,184.92 149.82,183.88 152.25,183.08 C154.74,182.26 155.84,181.15 156.55,178.74 C157.25,176.33 158.31,175.26 160.66,174.57 C162.96,173.89 163.97,172.89 164.37,170.91 C164.77,168.91 165.82,167.88 168.34,167.05 C170.97,166.19 171.91,165.22 172.37,162.92 C172.81,160.71 173.87,159.53 176.37,158.49 C178.51,157.60 179.99,156.16 180.38,154.61 C180.79,152.98 182.11,151.79 184.30,151.07 C186.74,150.26 187.84,149.14 188.55,146.74 C189.25,144.33 190.31,143.26 192.66,142.57 C194.96,141.89 195.97,140.89 196.37,138.91 C196.77,136.91 197.82,135.88 200.34,135.05 C202.89,134.21 203.91,133.21 204.33,131.12 C204.74,129.03 205.71,128.09 208.15,127.39 C211.58,126.40 212.09,125.00 214.65,109.63 L 215.30 105.75 L 217.15 110.63 C218.17,113.31 219.00,116.38 219.00,117.45 C219.00,119.01 219.25,119.15 220.25,118.15 C221.20,117.20 221.77,108.26 221.91,97.85 L 221.93 95.81 C221.93,96.50 221.92,97.18 221.91,97.85 L 221.22 161.22 C221.19,161.78 221.15,162.32 221.11,162.83 C220.92,165.21 220.71,166.84 220.47,167.50 C219.81,169.33 219.25,171.47 219.07,172.74 C218.54,174.55 218.04,176.28 217.70,177.43 C217.68,177.52 217.65,177.60 217.63,177.68 ZM 174.68 151.39 C172.00,153.82 169.43,154.51 168.52,153.03 C168.17,152.47 169.00,151.50 170.37,150.88 C171.73,150.26 173.11,148.68 173.44,147.37 C173.77,146.07 174.70,145.00 175.52,145.00 C177.81,145.00 177.28,149.01 174.68,151.39 ZM 166.73 159.00 C166.53,161.59 164.91,161.54 162.62,158.87 C161.14,157.14 161.05,156.59 162.15,155.90 C162.92,155.42 163.64,155.48 163.83,156.03 C164.02,156.56 164.78,157.00 165.52,157.00 C166.27,157.00 166.81,157.90 166.73,159.00 ZM 217.03 54.02 C218.55,57.90 219.88,62.05 220.50,65.29 C220.52,65.44 220.55,65.59 220.58,65.76 C219.92,62.29 218.57,57.99 217.03,54.02 Z" fill="rgb(90,74,231)"/>
<path d="M 159.00 76.00 L 159.00 141.00 L 142.25 140.84 L 125.50 140.68 L 140.62 139.98 C148.93,139.60 156.17,139.01 156.70,138.69 C157.28,138.33 157.72,126.66 157.80,109.64 C157.94,82.40 157.86,81.09 155.90,78.60 L 153.85 76.00 ZM 160.46 152.07 C159.71,153.28 130.68,153.00 128.69,151.77 C128.03,151.36 135.06,151.02 144.31,151.02 C156.00,151.00 160.92,151.33 160.46,152.07 ZM 111.19 164.96 C112.95,166.60 113.06,167.00 111.76,167.00 C109.15,167.00 107.00,164.11 107.00,160.60 C107.00,158.43 106.17,156.57 104.50,155.00 C101.79,152.46 101.75,151.58 104.39,152.60 C106.39,153.36 109.00,158.08 109.00,160.91 C109.00,162.02 109.98,163.84 111.19,164.96 ZM 100.00 152.00 C100.00,152.55 98.76,152.91 97.25,152.80 C95.74,152.69 88.88,152.33 82.00,152.00 L 69.50 151.41 L 84.75 151.20 C94.39,151.07 100.00,151.37 100.00,152.00 ZM 221.93 95.81 C222.30,118.90 222.06,148.28 221.22,161.22 L 221.91 97.85 L 221.91 97.85 C221.92,97.18 221.93,96.50 221.93,95.81 ZM 115.79 73.89 C115.12,74.78 114.51,75.62 114.44,75.76 C114.38,75.90 113.61,75.22 112.74,74.26 C111.26,72.62 111.35,72.49 114.08,72.39 C116.61,72.30 116.84,72.50 115.79,73.89 Z" fill="rgb(107,85,208)"/>
<path d="M 215.30 49.93 C215.88,51.22 216.47,52.60 217.03,54.02 C218.57,57.99 219.92,62.29 220.58,65.76 C221.26,70.03 221.71,81.75 221.93,95.81 C221.93,96.38 221.92,96.95 221.91,97.51 C221.91,97.63 221.91,97.74 221.91,97.85 L 221.91 97.85 L 221.91 97.85 L 221.91 97.86 C221.77,108.26 221.20,117.20 220.25,118.15 C219.25,119.15 219.00,119.01 219.00,117.45 C219.00,116.38 218.17,113.31 217.15,110.63 L 215.30 105.75 L 214.65 109.63 C212.09,125.00 211.58,126.40 208.15,127.39 C205.71,128.09 204.74,129.03 204.33,131.12 C203.91,133.21 202.89,134.21 200.34,135.05 C197.82,135.88 196.77,136.91 196.37,138.91 C195.97,140.89 194.96,141.89 192.66,142.57 C190.31,143.26 189.25,144.33 188.55,146.74 C187.84,149.14 186.74,150.26 184.30,151.07 C182.11,151.79 180.79,152.98 180.38,154.61 C179.99,156.16 178.51,157.60 176.37,158.49 C173.87,159.53 172.81,160.71 172.37,162.92 C171.91,165.22 170.97,166.19 168.34,167.05 C165.82,167.88 164.77,168.91 164.37,170.91 C163.97,172.89 162.96,173.89 160.66,174.57 C158.31,175.26 157.25,176.33 156.55,178.74 C155.84,181.15 154.74,182.26 152.25,183.08 C149.82,183.88 148.77,184.92 148.37,186.91 C147.97,188.89 146.96,189.89 144.66,190.57 C142.31,191.26 141.25,192.33 140.55,194.74 C139.84,197.15 138.74,198.26 136.25,199.08 C133.82,199.88 132.77,200.92 132.37,202.91 C131.97,204.89 130.96,205.89 128.66,206.57 C126.31,207.26 125.25,208.33 124.55,210.74 C123.84,213.12 122.73,214.26 120.34,215.05 C116.93,216.18 114.92,219.72 116.97,220.98 C117.69,221.43 116.90,221.97 114.95,222.36 C111.97,222.96 94.14,223.65 82.10,223.83 C75.22,223.75 70.97,223.63 70.84,223.51 C70.57,223.24 67.95,222.75 65.01,222.42 C62.07,222.09 58.73,221.25 57.58,220.54 C56.44,219.82 54.02,218.97 52.20,218.64 C50.73,218.37 48.92,217.70 46.90,216.71 C47.85,216.97 47.73,216.36 47.00,215.00 C46.41,213.90 45.38,212.96 44.71,212.92 C43.81,212.86 43.82,212.71 44.76,212.34 C45.45,212.06 45.76,211.42 45.45,210.91 C45.14,210.41 45.41,210.00 46.05,210.00 C46.69,210.00 46.96,209.33 46.64,208.51 C46.21,207.39 47.05,206.86 49.95,206.39 C53.02,205.90 54.88,204.60 58.89,200.14 C61.68,197.04 64.89,193.60 66.02,192.50 C68.19,190.39 78.86,179.72 81.78,176.74 C82.72,175.78 86.10,172.63 89.27,169.75 C92.45,166.87 95.57,163.05 96.22,161.26 C96.96,159.22 98.08,158.00 99.20,158.00 C100.84,158.00 101.48,156.88 101.09,154.68 C101.01,154.22 101.39,154.12 101.93,154.46 C102.47,154.79 102.66,155.84 102.36,156.78 C101.89,158.25 101.97,158.28 102.92,157.00 C103.90,155.69 104.23,155.75 105.52,157.44 C106.03,158.11 106.48,158.52 106.74,158.60 C106.91,159.23 107.00,159.90 107.00,160.60 C107.00,164.11 109.15,167.00 111.76,167.00 C112.94,167.00 112.96,166.68 111.66,165.41 C114.82,167.36 120.00,165.73 120.00,161.17 C120.00,157.73 122.30,154.42 126.01,152.49 C126.65,152.16 127.48,151.90 128.65,151.69 C128.63,151.72 128.65,151.74 128.69,151.77 C130.68,153.00 159.71,153.28 160.46,152.07 C160.92,151.33 156.00,151.00 144.31,151.02 C140.41,151.02 136.91,151.08 134.21,151.18 C137.14,151.05 141.03,151.00 146.26,151.00 L 163.63 151.00 L 169.50 144.87 L 170.50 112.52 C171.05,94.72 171.85,79.82 172.27,79.39 C172.70,78.97 172.96,79.50 172.86,80.56 C172.48,84.74 173.05,89.00 174.00,89.00 C174.55,89.00 175.01,87.99 175.01,86.75 C175.04,82.44 176.21,80.16 178.96,79.02 C180.49,78.38 184.04,75.31 186.85,72.18 C196.36,61.61 204.86,54.00 207.14,54.00 C209.34,54.00 209.73,53.33 210.10,49.00 C210.26,47.08 210.81,44.94 211.31,44.26 C211.51,43.99 211.62,43.74 211.65,43.52 C212.65,44.88 213.99,47.28 215.30,49.93 ZM 157.83 92.79 C157.86,96.89 157.84,102.33 157.80,109.64 C157.72,126.66 157.28,138.33 156.70,138.69 C156.17,139.01 148.93,139.60 140.62,139.98 L 128.29 140.56 C122.63,139.93 121.73,138.41 121.53,134.84 C121.32,131.19 121.33,131.18 123.09,133.34 C124.86,135.49 124.88,135.49 126.42,133.50 C127.26,132.40 127.87,130.82 127.75,130.00 C127.45,127.74 128.89,126.00 131.07,126.00 C133.81,126.00 143.00,117.10 143.00,114.45 C143.00,111.76 146.21,108.76 148.24,109.54 C150.38,110.36 154.07,104.87 154.74,99.87 C155.04,97.65 155.92,95.58 156.69,95.29 C157.24,95.08 157.62,94.14 157.83,92.79 ZM 174.68 151.39 C177.28,149.01 177.81,145.00 175.52,145.00 C174.70,145.00 173.77,146.07 173.44,147.37 C173.11,148.68 171.73,150.26 170.37,150.88 C169.00,151.50 168.17,152.47 168.52,153.03 C169.43,154.51 172.00,153.82 174.68,151.39 ZM 166.73 159.00 C166.81,157.90 166.27,157.00 165.52,157.00 C164.78,157.00 164.02,156.56 163.83,156.03 C163.64,155.48 162.92,155.42 162.15,155.90 C161.05,156.59 161.14,157.14 162.62,158.87 C164.91,161.54 166.53,161.59 166.73,159.00 ZM 130.32 140.73 L 159.00 141.00 L 142.75 140.99 C137.34,140.98 133.31,140.93 130.32,140.73 ZM 157.55 83.67 C157.16,81.41 156.56,79.44 155.78,78.44 L 155.90 78.60 C156.77,79.71 157.28,80.59 157.55,83.67 ZM 109.63 162.91 C109.24,162.19 109.00,161.46 109.00,160.91 C109.00,160.71 108.99,160.50 108.96,160.28 C109.12,160.87 109.27,161.50 109.41,162.15 C109.47,162.42 109.55,162.67 109.63,162.91 ZM 103.55 152.31 C103.00,152.16 102.66,152.15 102.52,152.27 C102.62,152.09 102.97,152.10 103.55,152.31 ZM 106.71 154.79 C106.46,154.42 106.19,154.09 105.93,153.79 C106.20,154.08 106.46,154.41 106.71,154.79 Z" fill="rgb(100,77,234)"/>
<path d="M 22.35 197.03 C22.59,196.97 22.67,196.41 22.81,195.40 C23.22,192.40 20.53,187.35 17.74,185.88 C14.99,184.43 14.04,183.08 14.02,180.58 C14.01,179.52 13.21,177.76 12.25,176.66 C10.58,174.76 10.58,174.69 12.25,175.30 C13.31,175.68 14.01,175.45 14.02,174.72 C14.03,173.91 14.34,173.98 14.94,174.93 C15.60,175.98 16.04,175.32 16.57,172.43 C16.98,170.27 18.14,167.91 19.15,167.19 C20.17,166.47 21.00,165.01 21.00,163.94 C21.00,162.36 21.70,162.00 24.80,162.00 C29.37,162.00 30.97,160.62 31.10,156.55 C31.20,153.58 31.22,153.56 32.00,156.00 C32.71,158.23 32.81,158.27 32.90,156.38 C32.96,155.22 33.90,153.13 35.00,151.73 C36.10,150.33 37.00,148.49 37.00,147.65 C37.00,146.56 38.23,146.03 41.25,145.81 C45.37,145.51 45.53,145.37 46.45,141.22 C47.04,138.55 47.85,137.11 48.61,137.40 C49.60,137.78 51.03,134.95 51.42,131.84 C51.46,131.48 52.74,130.21 54.25,129.02 L 57.00 126.85 L 57.00 136.24 C57.00,145.17 57.13,145.75 59.75,148.26 C65.26,153.54 69.02,154.38 86.05,154.12 C95.20,153.99 98.97,153.94 101.10,154.45 C101.08,154.51 101.08,154.59 101.09,154.68 C101.48,156.88 100.84,158.00 99.20,158.00 C98.08,158.00 96.96,159.22 96.22,161.26 C95.57,163.05 92.45,166.87 89.27,169.75 C86.10,172.63 82.72,175.78 81.78,176.74 C78.86,179.72 68.19,190.39 66.02,192.50 C64.89,193.60 61.68,197.04 58.89,200.14 C54.88,204.60 53.02,205.90 49.95,206.39 C47.05,206.86 46.21,207.39 46.64,208.51 C46.96,209.33 46.69,210.00 46.05,210.00 C45.41,210.00 45.14,210.41 45.45,210.91 C45.76,211.42 45.45,212.06 44.76,212.34 C44.49,212.44 44.30,212.53 44.18,212.61 C44.03,212.53 43.89,212.48 43.75,212.43 C41.73,211.80 37.27,208.53 32.92,204.47 C32.04,203.66 30.67,203.00 29.87,203.00 C29.06,203.00 27.95,202.66 27.40,202.25 C27.07,202.00 27.52,202.48 28.47,203.41 C27.84,202.81 27.22,202.21 26.61,201.60 C25.05,200.02 23.64,198.52 22.35,197.03 ZM 210.52 42.37 C210.79,42.47 211.18,42.88 211.65,43.52 C211.62,43.74 211.51,43.99 211.31,44.26 C210.81,44.94 210.26,47.08 210.10,49.00 C209.73,53.33 209.34,54.00 207.14,54.00 C204.86,54.00 196.36,61.61 186.85,72.18 C184.04,75.31 180.49,78.38 178.96,79.02 C176.21,80.16 175.04,82.44 175.01,86.75 C175.01,87.99 174.55,89.00 174.00,89.00 C173.05,89.00 172.48,84.74 172.86,80.56 C172.96,79.50 172.70,78.97 172.27,79.39 C171.93,79.73 171.35,89.43 170.85,102.46 C171.65,76.65 171.48,75.04 169.81,71.71 C166.22,64.52 164.06,63.94 143.25,64.57 C131.96,64.91 125.00,64.76 125.00,64.17 C125.00,63.64 125.66,62.96 126.47,62.65 C127.28,62.34 128.58,60.55 129.37,58.67 C130.15,56.78 131.29,54.94 131.90,54.56 C132.50,54.19 133.00,53.01 133.00,51.94 C133.00,50.36 133.71,50.00 136.80,50.00 C141.37,50.00 142.97,48.62 143.10,44.55 C143.20,41.58 143.22,41.56 144.00,44.00 C144.71,46.23 144.81,46.27 144.90,44.38 C144.96,43.22 145.90,41.13 147.00,39.73 C148.10,38.33 149.00,36.47 149.00,35.59 C149.00,34.42 149.99,34.00 152.80,34.00 C157.37,34.00 158.97,32.62 159.10,28.55 C159.20,25.58 159.22,25.56 160.00,28.00 C160.71,30.23 160.81,30.27 160.90,28.38 C160.96,27.22 161.84,25.20 162.87,23.88 C163.90,22.57 165.05,20.06 165.44,18.30 C166.09,15.31 166.36,15.14 169.82,15.54 C172.70,15.87 173.12,15.74 171.74,14.93 C170.78,14.36 169.63,14.11 169.19,14.38 C168.76,14.65 167.75,14.45 166.95,13.95 C163.98,12.07 170.54,12.98 174.50,15.00 C176.66,16.10 178.92,17.00 179.54,17.00 C180.15,17.00 181.71,18.12 183.00,19.50 C185.34,21.99 191.00,23.05 191.00,21.00 C191.00,20.89 190.98,20.78 190.94,20.68 C195.20,23.86 208.04,37.32 208.58,39.47 C208.91,40.78 209.78,42.09 210.52,42.37 ZM 106.15 135.54 L 105.42 138.26 L 91.46 138.38 C75.53,138.52 73.52,138.34 72.19,136.69 C71.63,136.00 71.45,130.44 71.75,123.34 C72.26,111.42 72.31,111.19 74.50,111.59 C76.46,111.94 76.81,111.47 77.29,107.87 C77.94,103.00 79.44,101.04 81.18,102.78 C82.69,104.29 85.00,102.54 85.00,99.88 C85.00,98.36 85.75,98.00 88.95,98.00 C91.21,98.00 93.24,97.42 93.70,96.65 C94.14,95.90 95.46,94.79 96.63,94.17 C97.92,93.50 99.03,91.65 99.43,89.50 C99.85,87.29 100.52,86.20 101.20,86.62 C101.92,87.07 102.12,86.43 101.80,84.71 C101.16,81.40 102.62,78.67 103.50,81.53 C103.83,82.61 104.65,84.62 105.32,86.00 C106.22,87.83 106.41,93.92 106.02,108.82 C105.74,120.00 105.81,129.98 106.19,130.99 C106.56,132.00 106.55,134.05 106.15,135.54 ZM 157.83 92.79 C157.62,94.14 157.24,95.08 156.69,95.29 C155.92,95.58 155.04,97.65 154.74,99.87 C154.07,104.87 150.38,110.36 148.24,109.54 C146.21,108.76 143.00,111.76 143.00,114.45 C143.00,117.10 133.81,126.00 131.07,126.00 C128.89,126.00 127.45,127.74 127.75,130.00 C127.87,130.82 127.26,132.40 126.42,133.50 C124.88,135.49 124.86,135.49 123.09,133.34 C122.47,132.58 122.07,132.08 121.81,131.93 C121.88,127.62 121.95,118.55 121.98,109.50 C122.02,98.50 122.49,88.15 123.03,86.50 C123.90,83.81 127.38,80.91 132.20,78.83 C133.14,78.43 137.75,77.86 142.46,77.56 C146.69,77.29 151.68,76.84 154.24,76.49 L 155.78 78.44 C156.56,79.44 157.16,81.41 157.55,83.67 C157.72,85.62 157.80,88.46 157.83,92.79 ZM 10.75 175.33 C10.75,176.53 11.99,179.75 13.65,183.31 C12.26,180.35 10.92,177.19 9.76,174.06 L 9.76 174.06 C9.59,173.57 9.41,173.09 9.24,172.59 C8.66,170.96 8.21,169.69 7.86,168.21 C7.92,168.41 7.97,168.58 8.03,168.75 C8.83,171.09 9.77,173.00 10.12,173.00 C10.47,173.00 10.75,174.05 10.75,175.33 ZM 127.79 58.86 C128.03,59.58 127.75,60.65 127.17,61.23 C126.43,61.97 126.30,61.58 126.73,59.92 C127.08,58.57 127.54,58.11 127.79,58.86 ZM 102.29 154.87 C102.90,155.17 103.39,155.57 103.96,156.09 C103.65,156.12 103.35,156.43 102.92,157.00 C101.97,158.28 101.89,158.25 102.36,156.78 C102.58,156.09 102.54,155.35 102.29,154.87 ZM 44.74 212.92 C45.41,212.99 46.42,213.91 47.00,215.00 C47.03,215.05 47.06,215.11 47.08,215.16 C46.49,214.37 45.60,213.49 44.74,212.92 ZM 6.62 82.97 C7.07,71.63 7.98,64.90 9.56,59.43 C8.01,64.86 7.10,71.72 6.62,82.97 ZM 122.43 138.31 C123.30,139.52 124.98,140.19 128.29,140.56 L 128.07 140.57 C124.84,140.20 123.22,139.54 122.43,138.31 ZM 105.53 157.46 C105.98,157.80 106.35,158.05 106.61,158.17 C106.66,158.31 106.70,158.45 106.74,158.60 C106.48,158.52 106.03,158.11 105.53,157.46 ZM 159.00 76.00 L 157.40 76.00 L 159.00 75.74 ZM 130.32 140.73 C133.31,140.93 137.34,140.98 142.75,140.99 C137.09,140.98 132.93,140.94 129.88,140.73 ZM 7.25 164.39 C7.10,163.04 6.99,161.42 6.90,159.40 C7.00,161.42 7.11,163.06 7.25,164.39 ZM 166.56 147.94 L 169.50 144.87 L 169.50 144.87 L 163.63 151.00 ZM 15.92 44.68 C18.49,40.12 21.46,35.87 24.74,32.05 C21.46,35.86 18.49,40.11 15.92,44.68 Z" fill="rgb(110,81,237)"/>
<path d="M 106.15 135.54 C106.55,134.05 106.56,132.00 106.19,130.99 C105.81,129.98 105.74,120.00 106.02,108.82 C106.41,93.92 106.22,87.83 105.32,86.00 C104.65,84.62 103.83,82.61 103.50,81.53 C102.87,79.47 101.93,80.31 101.70,82.17 C101.21,78.73 99.06,78.00 91.57,78.00 C87.86,78.00 85.00,77.57 85.00,77.00 C85.00,76.45 87.60,76.00 90.81,76.00 C98.96,76.00 104.19,78.70 106.90,84.29 C108.86,88.34 109.00,90.28 109.00,113.23 C109.00,126.77 108.73,138.55 108.39,139.42 C107.87,140.78 105.36,140.99 90.14,140.92 C80.44,140.88 71.94,140.62 71.25,140.34 C70.29,139.95 70.00,132.64 70.00,108.53 L 70.00 77.23 L 72.25 76.63 C75.46,75.77 84.00,75.86 84.00,76.75 C84.00,77.16 81.62,77.35 78.70,77.17 C73.94,76.87 73.28,77.08 72.33,79.18 C71.10,81.87 70.75,100.33 71.80,106.90 C72.29,110.01 72.84,111.15 74.16,111.53 C72.30,111.25 72.23,112.07 71.75,123.34 C71.45,130.44 71.63,136.00 72.19,136.69 C73.52,138.34 75.53,138.52 91.46,138.38 L 105.42 138.26 ZM 102.29 154.87 C102.20,154.69 102.08,154.55 101.93,154.46 C101.50,154.19 101.17,154.20 101.10,154.45 C98.97,153.94 95.20,153.99 86.05,154.12 C69.02,154.38 65.26,153.54 59.75,148.26 C57.13,145.75 57.00,145.17 57.00,136.24 L 57.00 126.85 L 54.25 129.02 C53.07,129.95 52.03,130.93 51.61,131.48 C51.97,130.97 52.79,130.14 53.71,129.36 C55.84,127.56 55.93,126.68 56.51,102.50 C56.84,88.75 57.32,76.49 57.58,75.25 C59.03,68.15 59.47,76.74 59.22,107.73 C59.03,131.65 59.30,143.30 60.07,145.16 C62.10,150.06 66.01,151.00 84.45,151.00 C93.74,151.00 99.25,151.13 102.69,152.16 C102.61,152.17 102.55,152.21 102.52,152.27 C102.20,152.53 102.86,153.46 104.50,155.00 C105.51,155.95 106.21,157.00 106.61,158.17 C106.35,158.05 105.98,157.80 105.53,157.46 L 105.52 157.44 C104.79,156.49 104.37,156.05 103.96,156.09 C103.39,155.57 102.90,155.17 102.29,154.87 ZM 115.79 73.89 C116.84,72.50 116.61,72.30 114.08,72.39 C111.35,72.49 111.26,72.62 112.74,74.26 C113.32,74.90 113.86,75.42 114.17,75.65 L 114.09 75.72 L 111.79 73.26 C110.53,71.91 107.70,69.84 105.50,68.65 C101.83,66.68 100.02,66.50 83.36,66.50 C66.90,66.50 65.02,66.68 63.10,68.41 C60.30,70.94 59.46,69.95 62.05,67.18 C63.95,65.14 65.06,64.99 79.79,64.82 C88.43,64.72 96.18,64.72 97.00,64.81 C103.52,65.53 106.99,66.63 110.00,68.96 C112.34,70.77 114.20,71.47 115.63,71.08 C117.23,70.64 121.68,67.17 125.00,64.09 C125.00,64.12 125.00,64.14 125.00,64.17 C125.00,64.76 131.96,64.91 143.25,64.57 C164.06,63.94 166.22,64.52 169.81,71.71 C171.48,75.04 171.65,76.65 170.85,102.46 C170.73,105.64 170.61,109.02 170.50,112.52 L 169.50 144.87 L 169.79 110.28 C169.81,108.22 169.82,106.26 169.84,104.39 C170.06,81.53 170.15,72.10 165.58,68.34 C162.38,65.70 156.88,65.85 147.54,66.09 C146.45,66.12 145.31,66.15 144.11,66.18 C126.09,66.58 123.05,67.35 117.01,72.99 L 115.19 74.69 C115.37,74.44 115.58,74.17 115.79,73.89 ZM 59.25 10.45 C64.98,9.08 72.23,8.69 86.66,8.47 C91.75,8.40 97.94,8.34 105.50,8.27 C145.51,7.90 164.43,8.64 170.50,10.81 C172.15,11.40 175.42,12.38 177.77,12.99 C180.11,13.59 183.55,15.42 185.40,17.05 C187.25,18.67 189.20,20.00 189.73,20.00 C189.94,20.00 190.36,20.24 190.94,20.68 C190.98,20.78 191.00,20.89 191.00,21.00 C191.00,23.05 185.34,21.99 183.00,19.50 C181.71,18.12 180.15,17.00 179.54,17.00 C178.92,17.00 176.66,16.10 174.50,15.00 C170.85,13.14 165.00,12.22 166.42,13.55 C165.88,13.32 165.31,13.04 164.72,12.74 C159.42,9.98 157.84,9.88 109.78,9.35 C80.14,9.02 68.47,9.21 66.90,10.05 C65.53,10.79 64.52,10.85 64.12,10.23 C63.74,9.62 61.24,9.97 57.53,11.15 C53.74,12.35 50.13,13.80 46.70,15.46 C47.22,15.21 47.71,14.96 48.20,14.73 C51.23,13.34 54.49,12.06 58.00,10.87 C58.43,10.72 58.85,10.58 59.25,10.45 ZM 122.43 138.31 C123.22,139.54 124.84,140.20 128.07,140.57 L 125.50 140.68 L 129.88 140.73 C132.93,140.94 137.09,140.98 142.75,140.99 L 159.00 141.00 L 143.12 141.00 C134.39,141.00 125.95,141.26 124.37,141.58 C122.78,141.89 121.15,141.82 120.74,141.41 C120.33,141.00 120.00,128.80 120.00,114.30 C120.00,85.19 120.37,83.01 125.94,79.04 C129.38,76.60 129.61,76.57 141.50,76.97 C145.07,77.08 149.51,76.97 152.46,76.71 C149.73,77.01 145.85,77.35 142.46,77.56 C137.75,77.86 133.14,78.43 132.20,78.83 C127.38,80.91 123.90,83.81 123.03,86.50 C122.49,88.15 122.02,98.50 121.98,109.50 C121.95,118.55 121.88,127.62 121.81,131.93 C121.35,131.64 121.39,132.47 121.53,134.84 C121.61,136.32 121.82,137.45 122.43,138.31 ZM 10.75 175.33 C10.75,174.05 10.47,173.00 10.12,173.00 C9.77,173.00 8.83,171.09 8.03,168.75 C7.97,168.58 7.92,168.41 7.86,168.21 C7.61,167.13 7.41,165.93 7.25,164.39 C7.11,163.06 7.00,161.42 6.90,159.40 C6.61,153.19 6.52,143.08 6.36,124.70 L 6.36 124.50 L 6.36 124.50 C6.20,105.97 6.24,92.89 6.62,83.17 C5.85,108.99 7.37,157.96 9.62,164.35 C10.38,166.50 11.00,169.73 11.00,171.54 C11.00,173.35 11.56,175.03 12.25,175.27 C12.94,175.51 13.67,175.27 13.87,174.74 C13.91,174.63 13.96,174.55 14.03,174.50 C14.02,174.56 14.02,174.64 14.02,174.72 C14.01,175.45 13.31,175.68 12.25,175.30 C10.58,174.69 10.58,174.76 12.25,176.66 C13.21,177.76 14.01,179.52 14.02,180.58 C14.04,183.08 14.99,184.43 17.74,185.88 C20.53,187.35 23.22,192.40 22.81,195.40 C22.67,196.41 22.59,196.97 22.35,197.03 C20.29,194.65 18.54,192.29 16.95,189.72 C15.85,187.78 14.73,185.60 13.65,183.31 C11.99,179.75 10.75,176.53 10.75,175.33 ZM 47.08 215.16 C47.74,216.41 47.81,216.96 46.90,216.71 C41.43,214.03 34.42,209.02 28.47,203.41 L 28.47 203.41 C27.52,202.48 27.07,202.00 27.40,202.25 C27.95,202.66 29.06,203.00 29.87,203.00 C30.67,203.00 32.04,203.66 32.92,204.47 C37.27,208.53 41.73,211.80 43.75,212.43 C43.89,212.48 44.03,212.53 44.18,212.61 C43.88,212.79 44.06,212.88 44.71,212.92 C44.72,212.92 44.73,212.92 44.74,212.92 C45.60,213.49 46.49,214.37 47.08,215.16 ZM 100.00 152.00 C100.00,151.37 94.39,151.07 84.75,151.20 L 69.50 151.41 L 82.00 152.00 C88.88,152.33 95.74,152.69 97.25,152.80 C98.76,152.91 100.00,152.55 100.00,152.00 ZM 12.18 52.28 C10.25,57.09 8.81,62.19 7.89,67.55 C8.33,64.41 8.89,61.79 9.56,59.43 C9.90,58.25 10.27,57.12 10.68,56.02 C11.15,54.76 11.65,53.51 12.18,52.28 ZM 43.34 17.15 L 43.36 17.14 C44.06,16.79 44.73,16.45 45.37,16.13 C38.66,19.57 32.69,23.88 27.58,28.95 C28.01,28.51 28.44,28.08 28.88,27.65 C33.21,23.52 37.92,20.09 43.34,17.15 ZM 101.80 84.71 L 101.80 84.71 C102.12,86.43 101.92,87.07 101.20,86.62 C100.88,86.42 100.56,86.56 100.27,86.99 C100.53,86.56 100.80,86.37 101.02,86.51 C101.41,86.76 101.72,85.99 101.80,84.71 ZM 133.38 50.64 C133.10,50.93 133.00,51.35 133.00,51.94 C133.00,53.01 132.50,54.19 131.90,54.56 C131.84,54.60 131.79,54.64 131.73,54.70 C132.47,53.52 133.00,52.26 133.00,51.59 C133.00,51.19 133.12,50.88 133.38,50.64 ZM 130.44 56.49 C130.06,57.15 129.68,57.90 129.37,58.67 C129.25,58.93 129.13,59.20 129.00,59.46 C129.00,58.92 129.61,57.69 130.44,56.49 ZM 108.18 157.49 C107.78,156.53 107.27,155.59 106.71,154.79 L 106.71 154.79 C106.56,154.57 106.41,154.36 106.26,154.17 C107.09,155.02 107.68,156.11 108.18,157.49 ZM 128.29 60.71 C127.68,61.66 127.03,62.39 126.54,62.62 C127.26,61.90 127.86,61.25 128.29,60.71 ZM 15.27 175.33 C15.72,175.61 16.16,174.63 16.57,172.43 C16.13,174.80 15.76,175.68 15.27,175.33 ZM 75.39 111.68 C76.55,111.64 76.90,110.77 77.29,107.88 C76.89,110.84 76.58,111.68 75.39,111.68 ZM 108.93 160.07 C109.09,160.71 109.25,161.41 109.41,162.15 C109.27,161.50 109.12,160.87 108.96,160.28 C108.95,160.21 108.94,160.14 108.93,160.07 ZM 169.16 14.40 C169.17,14.39 169.18,14.39 169.19,14.38 C169.24,14.35 169.30,14.33 169.36,14.31 C169.35,14.32 169.34,14.33 169.33,14.34 C169.29,14.37 169.24,14.39 169.16,14.40 ZM 14.85 174.80 C14.92,174.88 14.98,174.97 15.04,175.07 C15.08,175.12 15.11,175.17 15.15,175.21 C15.08,175.14 15.01,175.05 14.94,174.93 C14.91,174.89 14.88,174.84 14.85,174.80 ZM 171.61 14.85 C171.65,14.88 171.70,14.90 171.74,14.93 C172.02,15.09 172.23,15.23 172.35,15.34 C172.21,15.22 171.98,15.07 171.68,14.89 C171.65,14.88 171.63,14.87 171.61,14.85 Z" fill="rgb(112,85,225)"/>
<path d="M 128.29 60.71 C127.86,61.25 127.26,61.90 126.54,62.62 C126.52,62.63 126.49,62.64 126.47,62.65 C125.70,62.95 125.06,63.58 125.00,64.09 C121.68,67.17 117.23,70.64 115.63,71.08 C114.20,71.47 112.34,70.77 110.00,68.96 C106.99,66.63 103.52,65.53 97.00,64.81 C96.18,64.72 88.43,64.72 79.79,64.82 C65.06,64.99 63.95,65.14 62.05,67.18 C60.95,68.36 60.47,69.22 60.50,69.62 C60.19,69.52 59.88,69.31 59.51,69.01 C58.34,68.04 58.25,67.41 59.11,66.37 C59.96,65.34 59.95,65.00 59.06,65.00 C58.41,65.00 58.13,64.60 58.44,64.10 C58.74,63.61 58.32,62.95 57.49,62.64 C54.23,61.38 56.25,56.64 60.39,55.86 C61.43,55.66 62.67,54.71 63.14,53.75 C63.61,52.79 64.38,51.22 64.84,50.27 C65.31,49.32 66.73,48.30 68.00,48.00 C69.27,47.70 70.69,46.68 71.16,45.73 L 72.84 42.27 C73.31,41.32 74.73,40.30 76.00,40.00 C77.27,39.70 78.69,38.68 79.16,37.73 L 80.84 34.27 C81.31,33.32 82.73,32.30 84.00,32.00 C85.27,31.70 86.69,30.68 87.16,29.73 L 88.84 26.27 C89.31,25.32 90.74,24.30 92.03,23.99 C93.32,23.69 95.11,22.10 96.01,20.47 C96.99,18.70 98.63,17.36 100.08,17.17 C101.41,16.98 102.93,16.42 103.45,15.92 C103.97,15.41 105.24,15.00 106.27,15.00 C107.30,15.00 108.76,14.38 109.52,13.62 C110.69,12.45 110.34,12.15 107.20,11.63 C105.16,11.30 101.39,11.02 98.81,11.01 C96.23,11.00 93.84,10.55 93.50,10.00 C93.27,9.62 91.38,9.36 88.70,9.20 C94.39,9.20 101.36,9.25 109.78,9.35 C157.84,9.88 159.42,9.98 164.72,12.74 C165.31,13.04 165.88,13.32 166.42,13.55 C166.54,13.67 166.72,13.80 166.95,13.95 C167.73,14.44 168.70,14.64 169.16,14.40 C169.24,14.39 169.29,14.37 169.33,14.34 C169.34,14.33 169.35,14.32 169.36,14.31 C169.85,14.18 170.78,14.40 171.61,14.85 C171.63,14.87 171.65,14.88 171.68,14.89 C171.98,15.07 172.21,15.22 172.35,15.34 L 172.35 15.34 C172.85,15.78 172.12,15.81 169.82,15.54 C166.36,15.14 166.09,15.31 165.44,18.30 C165.05,20.06 163.90,22.57 162.87,23.88 C161.84,25.20 160.96,27.22 160.90,28.38 C160.81,30.27 160.71,30.23 160.00,28.00 C159.22,25.56 159.20,25.58 159.10,28.55 C158.97,32.62 157.37,34.00 152.80,34.00 C149.99,34.00 149.00,34.42 149.00,35.59 C149.00,36.47 148.10,38.33 147.00,39.73 C145.90,41.13 144.96,43.22 144.90,44.38 C144.81,46.27 144.71,46.23 144.00,44.00 C143.22,41.56 143.20,41.58 143.10,44.55 C142.97,48.62 141.37,50.00 136.80,50.00 C134.86,50.00 133.86,50.14 133.38,50.64 C133.12,50.88 133.00,51.19 133.00,51.59 C133.00,52.26 132.47,53.52 131.73,54.70 C131.37,55.01 130.91,55.67 130.44,56.49 C129.61,57.69 129.00,58.92 129.00,59.46 C128.78,59.90 128.54,60.33 128.29,60.71 ZM 14.85 174.80 C14.37,174.07 14.09,173.97 14.03,174.50 C13.96,174.55 13.91,174.63 13.87,174.74 C13.67,175.27 12.94,175.51 12.25,175.27 C11.56,175.03 11.00,173.35 11.00,171.54 C11.00,169.73 10.38,166.50 9.62,164.35 C7.89,159.45 6.59,129.48 6.43,104.14 C6.59,107.50 6.86,109.58 7.25,109.34 C7.66,109.09 8.00,108.00 8.00,106.92 C8.00,105.73 9.01,104.57 10.53,103.99 C11.91,103.46 13.30,102.24 13.60,101.27 C14.76,97.52 15.82,96.48 19.00,96.00 C20.81,95.72 22.68,94.71 23.15,93.75 C23.62,92.79 24.38,91.22 24.84,90.27 C25.31,89.32 26.73,88.30 28.00,88.00 C29.27,87.70 30.69,86.68 31.16,85.73 L 32.84 82.27 C33.31,81.32 34.73,80.30 36.00,80.00 C37.27,79.70 38.69,78.68 39.16,77.73 C39.62,76.78 40.37,75.24 40.83,74.30 C41.28,73.37 42.86,72.28 44.33,71.89 C46.54,71.30 47.00,71.50 47.00,73.09 C47.00,75.40 48.55,75.62 49.39,73.42 C50.35,70.92 50.11,70.00 48.50,70.00 C46.46,70.00 46.60,66.54 48.73,64.42 C50.36,62.78 50.48,62.81 50.98,64.90 C51.26,66.12 51.77,66.98 52.10,66.81 C52.42,66.64 53.55,67.16 54.60,67.97 C55.64,68.77 56.17,69.04 55.76,68.56 C55.35,68.08 55.58,67.00 56.26,66.15 C57.30,64.88 57.22,64.73 55.80,65.26 C54.58,65.72 54.26,65.49 54.67,64.42 C55.62,61.94 57.98,64.82 57.61,68.01 C57.41,69.77 57.70,70.67 58.39,70.40 C58.97,70.18 59.25,75.27 59.27,88.00 C59.17,73.34 58.66,70.00 57.58,75.25 C57.32,76.49 56.84,88.75 56.51,102.50 C55.93,126.68 55.84,127.56 53.71,129.36 C52.79,130.14 51.97,130.97 51.61,131.48 C51.50,131.64 51.43,131.76 51.42,131.84 C51.03,134.95 49.60,137.78 48.61,137.40 C47.85,137.11 47.04,138.55 46.45,141.22 C45.53,145.37 45.37,145.51 41.25,145.81 C38.23,146.03 37.00,146.56 37.00,147.65 C37.00,148.49 36.10,150.33 35.00,151.73 C33.90,153.13 32.96,155.22 32.90,156.38 C32.81,158.27 32.71,158.23 32.00,156.00 C31.22,153.56 31.20,153.58 31.10,156.55 C30.97,160.62 29.37,162.00 24.80,162.00 C21.70,162.00 21.00,162.36 21.00,163.94 C21.00,165.01 20.17,166.47 19.15,167.19 C18.14,167.91 16.98,170.27 16.57,172.43 C16.16,174.63 15.72,175.61 15.27,175.33 C15.23,175.30 15.19,175.26 15.15,175.21 C15.11,175.17 15.08,175.12 15.04,175.07 C14.98,174.97 14.92,174.88 14.85,174.80 ZM 101.80 84.71 C101.72,85.99 101.41,86.76 101.02,86.51 C100.80,86.37 100.53,86.56 100.27,86.99 C99.94,87.47 99.65,88.33 99.43,89.50 C99.03,91.65 97.92,93.50 96.63,94.17 C95.46,94.79 94.14,95.90 93.70,96.65 C93.24,97.42 91.21,98.00 88.95,98.00 C85.75,98.00 85.00,98.36 85.00,99.88 C85.00,102.54 82.69,104.29 81.18,102.78 C79.44,101.04 77.94,103.00 77.29,107.87 L 77.29 107.88 L 77.29 107.88 C76.90,110.77 76.55,111.64 75.39,111.68 C75.14,111.69 74.84,111.65 74.50,111.59 C74.38,111.56 74.27,111.54 74.16,111.53 C72.84,111.15 72.29,110.01 71.80,106.90 C70.75,100.33 71.10,81.87 72.33,79.18 C73.28,77.08 73.94,76.87 78.70,77.17 C81.62,77.35 84.00,77.16 84.00,76.75 C84.00,76.44 82.99,76.23 81.53,76.12 C82.85,76.09 84.23,76.08 85.61,76.08 C86.57,76.07 87.49,76.08 88.35,76.09 C86.37,76.25 85.00,76.60 85.00,77.00 C85.00,77.57 87.86,78.00 91.57,78.00 C99.06,78.00 101.21,78.73 101.70,82.17 C101.61,82.90 101.62,83.78 101.80,84.71 ZM 127.79 58.86 C127.54,58.11 127.08,58.57 126.73,59.92 C126.30,61.58 126.43,61.97 127.17,61.23 C127.75,60.65 128.03,59.58 127.79,58.86 ZM 120.73 157.82 C121.54,155.28 122.91,153.66 125.73,152.65 C123.39,153.92 121.65,155.76 120.73,157.82 ZM 99.62 77.46 C103.20,78.66 105.20,80.77 106.90,84.29 C105.34,81.06 102.94,78.80 99.62,77.46 ZM 117.43 165.53 C118.68,164.72 119.58,163.23 120.00,161.14 L 120.00 161.17 C120.00,163.26 118.91,164.73 117.43,165.53 ZM 112.75 165.80 C113.48,166.06 114.17,166.20 114.81,166.22 C113.71,166.25 112.60,165.99 111.66,165.41 C111.54,165.29 111.40,165.16 111.26,165.03 C111.69,165.35 112.19,165.61 112.75,165.80 ZM 60.06 145.14 C61.24,147.97 63.02,149.48 67.79,150.25 C63.01,149.48 61.23,147.97 60.07,145.16 C60.06,145.15 60.06,145.15 60.06,145.14 ZM 67.73 9.81 C67.32,9.90 67.00,10.00 66.81,10.10 C65.48,10.81 64.52,10.86 64.12,10.23 C64.52,10.85 65.53,10.79 66.90,10.05 C67.07,9.96 67.34,9.88 67.73,9.81 ZM 12.18 52.28 C12.18,52.27 12.19,52.25 12.20,52.23 C10.26,57.06 8.81,62.18 7.88,67.57 L 7.89 67.55 C8.81,62.19 10.25,57.09 12.18,52.28 ZM 64.92 67.32 C67.08,66.60 71.32,66.50 83.36,66.50 C71.34,66.50 67.08,66.60 64.92,67.32 ZM 70.83 77.01 L 70.00 77.23 L 70.00 77.22 ZM 102.69 152.16 L 102.69 152.16 C100.49,151.50 97.44,151.21 93.09,151.09 C97.44,151.21 100.49,151.50 102.69,152.16 ZM 109.63 162.91 C109.55,162.67 109.47,162.42 109.41,162.15 C109.29,161.58 109.17,161.05 109.05,160.54 C109.17,161.05 109.29,161.59 109.42,162.17 C109.48,162.44 109.56,162.70 109.65,162.95 C109.65,162.94 109.64,162.93 109.63,162.91 Z" fill="rgb(119,85,240)"/>
<path d="M 15.92 44.68 C18.48,40.12 21.45,35.88 24.73,32.07 L 24.74 32.05 C25.67,30.98 26.61,29.95 27.58,28.95 C32.69,23.88 38.66,19.57 45.37,16.13 C45.83,15.90 46.27,15.68 46.70,15.46 C50.13,13.80 53.74,12.35 57.53,11.15 C61.24,9.97 63.74,9.62 64.12,10.23 C64.52,10.86 65.48,10.81 66.81,10.10 C67.00,10.00 67.32,9.90 67.73,9.81 C70.03,9.38 76.42,9.18 88.70,9.20 C91.38,9.36 93.27,9.62 93.50,10.00 C93.84,10.55 96.23,11.00 98.81,11.01 C101.39,11.02 105.16,11.30 107.20,11.63 C110.34,12.15 110.69,12.45 109.52,13.62 C108.76,14.38 107.30,15.00 106.27,15.00 C105.24,15.00 103.97,15.41 103.45,15.92 C102.93,16.42 101.41,16.98 100.08,17.17 C98.63,17.36 96.99,18.70 96.01,20.47 C95.11,22.10 93.32,23.69 92.03,23.99 C90.74,24.30 89.31,25.32 88.84,26.27 L 87.16 29.73 C86.69,30.68 85.27,31.70 84.00,32.00 C82.73,32.30 81.31,33.32 80.84,34.27 L 79.16 37.73 C78.69,38.68 77.27,39.70 76.00,40.00 C74.73,40.30 73.31,41.32 72.84,42.27 L 71.16 45.73 C70.69,46.68 69.27,47.70 68.00,48.00 C66.73,48.30 65.31,49.32 64.84,50.27 C64.38,51.22 63.61,52.79 63.14,53.75 C62.67,54.71 61.43,55.66 60.39,55.86 C56.25,56.64 54.23,61.38 57.49,62.64 C58.32,62.95 58.74,63.61 58.44,64.10 C58.13,64.60 58.41,65.00 59.06,65.00 C59.95,65.00 59.96,65.34 59.11,66.37 C58.25,67.41 58.34,68.04 59.51,69.01 C59.88,69.31 60.19,69.52 60.50,69.62 C60.53,70.16 61.50,69.86 63.10,68.41 C63.19,68.33 63.27,68.26 63.36,68.18 L 62.27 69.27 L 59.50 72.04 L 59.28 99.52 C59.29,95.10 59.29,91.27 59.27,88.00 C59.25,75.27 58.97,70.18 58.39,70.40 C57.70,70.67 57.41,69.77 57.61,68.01 C57.98,64.82 55.62,61.94 54.67,64.42 C54.26,65.49 54.58,65.72 55.80,65.26 C57.22,64.73 57.30,64.88 56.26,66.15 C55.58,67.00 55.35,68.08 55.76,68.56 C56.17,69.04 55.64,68.77 54.60,67.97 C53.55,67.16 52.42,66.64 52.10,66.81 C51.77,66.98 51.26,66.12 50.98,64.90 C50.48,62.81 50.36,62.78 48.73,64.42 C46.60,66.54 46.46,70.00 48.50,70.00 C50.11,70.00 50.35,70.92 49.39,73.42 C48.55,75.62 47.00,75.40 47.00,73.09 C47.00,71.50 46.54,71.30 44.33,71.89 C42.86,72.28 41.28,73.37 40.83,74.30 C40.37,75.24 39.62,76.78 39.16,77.73 C38.69,78.68 37.27,79.70 36.00,80.00 C34.73,80.30 33.31,81.32 32.84,82.27 L 31.16 85.73 C30.69,86.68 29.27,87.70 28.00,88.00 C26.73,88.30 25.31,89.32 24.84,90.27 C24.38,91.22 23.62,92.79 23.15,93.75 C22.68,94.71 20.81,95.72 19.00,96.00 C15.82,96.48 14.76,97.52 13.60,101.27 C13.30,102.24 11.91,103.46 10.53,103.99 C9.01,104.57 8.00,105.73 8.00,106.92 C8.00,108.00 7.66,109.09 7.25,109.34 C6.86,109.58 6.59,107.50 6.43,104.14 C6.38,96.45 6.44,89.18 6.62,83.17 C6.62,83.11 6.62,83.04 6.62,82.97 C6.89,76.61 7.30,71.66 7.88,67.57 C8.81,62.18 10.26,57.06 12.20,52.23 C13.31,49.64 14.56,47.11 15.92,44.68 Z" fill="rgb(127,88,242)"/>
<path d="M 112.75 165.80 C110.97,165.17 109.79,163.89 109.42,162.17 C107.13,151.66 105.65,151.00 84.45,151.00 C65.98,151.00 62.10,150.07 60.05,145.13 C59.27,143.23 59.01,131.71 59.21,107.22 L 59.50 72.04 L 62.27 69.27 L 65.05 66.50 L 83.27 66.50 C100.03,66.50 101.82,66.67 105.50,68.65 C107.70,69.84 110.53,71.91 111.79,73.26 L 114.09 75.72 L 117.01 72.99 C123.05,67.35 126.09,66.58 144.11,66.18 C171.41,65.56 170.18,63.45 169.79,110.28 L 169.50 144.87 L 166.56 147.94 L 163.63 151.00 L 146.26 151.00 C124.81,151.00 121.46,152.24 120.08,160.68 C119.35,165.19 116.55,167.14 112.75,165.80 ZM 143.12 141.00 L 159.00 141.00 L 159.00 108.39 L 159.00 75.77 L 154.25 76.50 C151.64,76.91 145.90,77.11 141.50,76.97 C129.61,76.57 129.38,76.60 125.94,79.04 C120.37,83.01 120.00,85.19 120.00,114.30 C120.00,128.80 120.33,141.00 120.74,141.41 C121.15,141.82 122.78,141.89 124.37,141.58 C125.95,141.26 134.39,141.00 143.12,141.00 ZM 108.39 139.42 C108.73,138.55 109.00,126.77 109.00,113.23 C109.00,90.28 108.86,88.34 106.90,84.29 C103.70,77.68 99.47,76.04 85.61,76.08 C79.50,76.09 73.49,76.35 72.25,76.66 L 70.00 77.22 L 70.00 108.53 C70.00,132.64 70.29,139.95 71.25,140.34 C71.94,140.62 80.44,140.88 90.14,140.92 C105.36,140.99 107.87,140.78 108.39,139.42 Z" fill="rgb(253,251,253)"/>
</g>
</svg>